<svg xmlns="http://www.w3.org/2000/svg" version="1.1" x="0" y="0" viewBox="585.7 345.3 109.3 109.3" enable-background="new 585.7 345.3 109.3 109.3" xml:space="preserve"><path fill="#B77729" d="M629.8 354.8c27.7-8.1 55.1 7.4 64.9 34.8 0-0.2-0.1-0.3-0.1-0.5 -4.1-21.1-20.3-38-41.1-43 -2.5-0.6-5.6-0.9-8.8-0.8 -0.4 0-0.7 0-1.1 0.1 -18.8 1.1-35.5 14.1-42.9 32.3C607 367.1 617.5 358.5 629.8 354.8"/><path fill="#0F5B65" d="M595.3 410.6c-8.1-27.7 7.4-55.1 34.8-64.9 -0.2 0-0.3 0.1-0.5 0.1 -21.1 4.1-38 20.3-43 41.1 -0.6 2.5-0.9 5.6-0.8 8.8 0 0.4 0 0.7 0.1 1.1 1.1 18.8 14.1 35.5 32.3 42.9C607.5 433.3 598.9 422.9 595.3 410.6"/><path fill="#B77729" d="M651 445.2c-27.7 8.1-55.1-7.4-64.9-34.8 0 0.2 0.1 0.3 0.1 0.5 4.1 21.1 20.3 38 41.1 43 2.5 0.6 5.6 0.9 8.8 0.8 0.4 0 0.7 0 1.1-0.1 18.8-1.1 35.5-14.1 42.9-32.3C673.8 432.9 663.4 441.5 651 445.2"/><path fill="#0F5B65" d="M685.6 389.4c8.1 27.7-7.4 55.1-34.8 64.9 0.2 0 0.3-0.1 0.5-0.1 21.1-4.1 38-20.3 43-41.1 0.6-2.5 0.9-5.6 0.8-8.7 0-0.4 0-0.7-0.1-1.1 -1.1-18.8-14.1-35.5-32.3-42.9C673.3 366.6 681.9 377 685.6 389.4"/><path fill="#0F5B65" d="M610.5 385.4l2.8-7.6c0.2-0.1 0.3-0.2 0.7-0.2s0.6 0.2 0.7 0.4l2.8 7.2c-0.1 0.2-0.4 0.3-0.6 0.3 -0.3 0-0.6-0.1-0.7-0.5l-0.5-1.2h-3.3l-0.5 1.3c-0.1 0.3-0.3 0.4-0.7 0.4C610.8 385.6 610.7 385.5 610.5 385.4zM612.7 382.7h2.6l-1.3-3.4L612.7 382.7z"/><path fill="#0F5B65" d="M621.9 384.4l-1.7-4.6 -0.3 5.2c0 0.3-0.2 0.5-0.6 0.5 -0.2 0-0.5 0-0.6-0.1l0.5-7c0-0.5 0.3-0.8 0.9-0.8 0.3 0 0.4 0 0.6 0.1l2.1 5.8 1.7-5.2c0.1-0.5 0.4-0.7 0.8-0.7 0.4 0 0.5 0 0.8 0.1l0.9 7.6c-0.1 0.1-0.4 0.2-0.7 0.2s-0.6-0.1-0.7-0.5l-0.5-5.2 -1.6 4.6c-0.2 0.6-0.5 0.7-0.8 0.7C622.3 385.2 622 385.1 621.9 384.4z"/><path fill="#0F5B65" d="M630.1 382v2.3h4c0.1 0.1 0.1 0.2 0.1 0.5 0 0.4-0.1 0.7-0.4 0.7h-4.4c-0.3 0-0.5-0.1-0.5-0.6v-7.3c0.1-0.1 0.3-0.1 0.6-0.1h4.7c0.1 0.1 0.1 0.2 0.1 0.5 0 0.4-0.1 0.6-0.4 0.6h-3.7v2.1h3.4c0.1 0.1 0.1 0.3 0.1 0.5 0 0.4-0.1 0.6-0.4 0.6h-3.2V382z"/><path fill="#0F5B65" d="M638.9 377.6c1.2 0 2.3 0.6 2.3 2.2 0 1.2-0.8 1.9-1.7 2.2 0.6 0.9 1.1 2.3 1.8 2.3h0.4c0.1 0.1 0.1 0.2 0.1 0.4 0 0.4-0.3 0.7-0.9 0.7 -1.3 0-1.6-2.1-2.6-3.3H637v3.2c-0.1 0.1-0.4 0.1-0.6 0.1 -0.3 0-0.6-0.1-0.6-0.6v-7.3c0.1-0.1 0.3-0.1 0.6-0.1h2.5V377.6zM637.1 378.6v2.6h1.4c0.9 0 1.5-0.4 1.5-1.3s-0.6-1.3-1.3-1.3L637.1 378.6 637.1 378.6z"/><path fill="#0F5B65" d="M644.6 378.1v7.3c-0.2 0.1-0.3 0.1-0.7 0.1 -0.3 0-0.6-0.1-0.6-0.6v-7.3c0.1-0.1 0.4-0.1 0.7-0.1C644.4 377.6 644.6 377.7 644.6 378.1z"/><path fill="#0F5B65" d="M652.5 384.1c0 0.3-0.1 0.5-0.4 0.7 -0.2 0.2-1 0.7-2.3 0.7 -1.9 0-3.4-1.2-3.4-4 0-2.8 1.4-4 3.3-4 1.3 0 1.8 0.3 2.3 0.8 0.2 0.2 0.4 0.4 0.4 0.7s-0.2 0.5-0.4 0.6c-0.5-0.5-1.2-0.9-2.2-0.9 -1.2 0-2.2 0.8-2.2 2.9s1 2.9 2.2 2.9c0.9 0 1.7-0.3 2.2-0.8C652.1 383.6 652.5 383.8 652.5 384.1z"/><path fill="#0F5B65" d="M653 385.4l2.8-7.6c0.2-0.1 0.3-0.2 0.7-0.2s0.6 0.2 0.7 0.4l2.8 7.2c-0.1 0.2-0.4 0.3-0.6 0.3 -0.3 0-0.6-0.1-0.7-0.5l-0.6-1.1h-3.3l-0.5 1.3c-0.1 0.3-0.3 0.4-0.7 0.4C653.2 385.6 653.1 385.5 653 385.4zM655.2 382.7h2.6l-1.3-3.4L655.2 382.7z"/><path fill="#0F5B65" d="M662.3 379.9l0.1 5.5c-0.1 0.1-0.4 0.1-0.7 0.1 -0.3 0-0.5-0.1-0.5-0.6v-7.3c0.2-0.1 0.4-0.1 0.7-0.1 0.3 0 0.5 0.1 0.6 0.3l3.7 5.4v-5.6c0.1-0.1 0.3-0.2 0.6-0.2 0.3 0 0.6 0.1 0.6 0.5v7.4c-0.1 0.1-0.3 0.1-0.6 0.1s-0.4-0.1-0.6-0.3L662.3 379.9z"/><path fill="#0F5B65" d="M623.5 391.7v5.8c0 1.2-0.6 1.7-1.6 1.7 -1.1 0-1.6-0.3-1.6-0.7 0-0.2 0-0.3 0.1-0.4h1.2c0.5 0 0.8-0.2 0.8-0.8v-5.9c0.1-0.1 0.3-0.1 0.6-0.1C623.3 391.2 623.5 391.3 623.5 391.7z"/><path fill="#0F5B65" d="M626.9 395.7v2.3h4c0.1 0.1 0.1 0.2 0.1 0.5 0 0.4-0.1 0.7-0.4 0.7h-4.4c-0.3 0-0.5-0.1-0.5-0.6v-7.3c0.1-0.1 0.3-0.1 0.6-0.1h4.7c0.1 0.1 0.1 0.2 0.1 0.5 0 0.4-0.1 0.6-0.4 0.6h-3.8v2.1h3.4c0.1 0.1 0.1 0.3 0.1 0.5 0 0.4-0.1 0.6-0.4 0.6h-3.1V395.7z"/><path fill="#0F5B65" d="M637.5 391.6l2.1 5.8c1-1.7 1.7-4.7 1.8-6.1 0.2-0.1 0.4-0.1 0.7-0.1 0.2 0 0.4 0.1 0.4 0.3 0 0.1 0 0.3-0.1 0.8 -0.2 1.1-1 4.2-2.5 6.8 -0.2 0.1-0.3 0.1-0.5 0.1 -0.3 0-0.5-0.1-0.6-0.5l-1.4-3.5c-0.5 1.3-1.2 2.8-1.8 3.9 -0.2 0.1-0.3 0.1-0.5 0.1 -0.3 0-0.5-0.1-0.6-0.5l-2.7-7.3c0.1-0.1 0.4-0.1 0.7-0.1s0.5 0.1 0.6 0.4l2.1 5.8c0.5-0.9 1.2-2.6 1.6-3.9l-0.8-2.1c0.1-0.1 0.4-0.1 0.7-0.1C637.2 391.2 637.4 391.3 637.5 391.6z"/><path fill="#0F5B65" d="M645.1 391.6v7.3c-0.2 0.1-0.3 0.1-0.7 0.1 -0.3 0-0.6-0.1-0.6-0.6v-7.3c0.1-0.1 0.4-0.1 0.7-0.1C644.8 391.2 645.1 391.3 645.1 391.6z"/><path fill="#0F5B65" d="M651.7 391.7c0.2 0.2 0.2 0.4 0.2 0.6s-0.1 0.4-0.3 0.6c-0.4-0.3-1.1-0.5-2.2-0.5 -1 0-1.4 0.4-1.4 0.9 0 0.5 0.4 0.9 1.7 1.2 1.7 0.4 2.5 0.9 2.5 2.3 0 1.3-0.8 2.3-2.8 2.3 -1.1 0-1.9-0.2-2.3-0.5 -0.3-0.2-0.4-0.5-0.4-0.7 0-0.3 0.1-0.5 0.2-0.6 0.6 0.4 1.6 0.7 2.6 0.7 1.2 0 1.6-0.5 1.6-1 0-0.6-0.3-0.9-1.7-1.2 -1.8-0.4-2.5-1-2.5-2.4 0-1.3 0.9-2.2 2.6-2.2C650.8 391.1 651.4 391.4 651.7 391.7z"/><path fill="#0F5B65" d="M660 391.6v7.4c-0.1 0.1-0.4 0.1-0.6 0.1 -0.3 0-0.7-0.1-0.7-0.6v-2.9h-3.5v3.3c-0.1 0.1-0.4 0.1-0.7 0.1s-0.5-0.1-0.5-0.6v-7.3c0.1-0.1 0.4-0.1 0.7-0.1s0.6 0.1 0.6 0.4v2.8h3.5v-3.1c0.1-0.1 0.4-0.1 0.7-0.1C659.7 391.2 660 391.3 660 391.6z"/><path fill="#0F5B65" d="M626.2 405.2l2.1 5.8c1-1.7 1.7-4.7 1.8-6.1 0.2-0.1 0.4-0.1 0.7-0.1 0.2 0 0.4 0.1 0.4 0.3 0 0.1 0 0.3-0.1 0.8 -0.2 1.1-1 4.2-2.5 6.8 -0.2 0.1-0.3 0.1-0.5 0.1 -0.3 0-0.5-0.1-0.6-0.5l-1.4-3.6c-0.5 1.3-1.2 2.8-1.8 3.9 -0.2 0.1-0.3 0.1-0.5 0.1 -0.3 0-0.5-0.1-0.6-0.5l-2.7-7.3c0.1-0.1 0.4-0.1 0.7-0.1 0.3 0 0.5 0.1 0.6 0.4l2.1 5.8c0.5-0.9 1.2-2.6 1.6-3.9l-0.8-2.1c0.1-0.1 0.4-0.1 0.7-0.1C625.9 404.7 626.1 404.8 626.2 405.2z"/><path fill="#0F5B65" d="M635.5 404.6c1.9 0 3.3 1.2 3.3 4 0 2.9-1.4 4-3.3 4s-3.3-1.2-3.3-4C632 405.9 633.5 404.6 635.5 404.6zM635.5 411.7c1.2 0 2.1-0.8 2.1-3 0-2.1-0.9-3-2.1-3 -1.2 0-2.1 0.9-2.1 3C633.2 410.9 634.2 411.7 635.5 411.7z"/><path fill="#0F5B65" d="M643.4 404.7c1.2 0 2.3 0.6 2.3 2.2 0 1.2-0.8 1.9-1.7 2.2 0.6 0.9 1.1 2.3 1.8 2.3h0.4c0.1 0.1 0.1 0.2 0.1 0.4 0 0.4-0.3 0.7-0.9 0.7 -1.3 0-1.6-2.1-2.6-3.3h-1.3v3.2c-0.1 0.1-0.4 0.1-0.6 0.1 -0.3 0-0.6-0.1-0.6-0.6v-7.3c0.1-0.1 0.3-0.1 0.6-0.1h2.5V404.7zM641.6 405.8v2.6h1.4c0.9 0 1.5-0.4 1.5-1.3s-0.6-1.3-1.3-1.3L641.6 405.8 641.6 405.8z"/><path fill="#0F5B65" d="M649.2 405.3v6.3h3.4c0.1 0.1 0.1 0.3 0.1 0.5 0 0.4-0.1 0.7-0.7 0.7h-3.6c-0.3 0-0.5-0.1-0.5-0.5v-7.3c0.1-0.1 0.3-0.1 0.6-0.1C648.9 404.7 649.2 404.8 649.2 405.3z"/><path fill="#0F5B65" d="M656.3 404.7c2.5 0 3.9 1.2 3.9 4 0 2.8-1.4 3.8-3.7 3.8h-1.8c-0.3 0-0.6-0.1-0.6-0.6v-7.3c0.1-0.1 0.3-0.1 0.6-0.1h1.6V404.7zM655.4 406v5.7h1.1c1.6 0 2.5-0.8 2.5-2.7 0-2.1-0.9-2.9-2.6-2.9H655.4z"/><path fill="#0F5B65" d="M623.1 418.9c0.2 0.2 0.2 0.4 0.2 0.6s-0.1 0.4-0.3 0.6c-0.4-0.3-1.1-0.5-2.2-0.5 -1 0-1.4 0.4-1.4 0.9 0 0.5 0.4 0.9 1.7 1.2 1.7 0.4 2.5 0.9 2.5 2.3 0 1.3-0.8 2.3-2.8 2.3 -1.1 0-1.9-0.2-2.3-0.5 -0.3-0.2-0.4-0.5-0.4-0.7 0-0.3 0.1-0.5 0.2-0.6 0.6 0.4 1.6 0.7 2.6 0.7 1.2 0 1.6-0.5 1.6-1 0-0.6-0.3-0.9-1.7-1.2 -1.8-0.4-2.5-1-2.5-2.4 0-1.3 0.9-2.2 2.6-2.2C622.1 418.2 622.7 418.6 623.1 418.9z"/><path fill="#0F5B65" d="M626.6 422.8v2.3h4c0.1 0.1 0.1 0.2 0.1 0.5 0 0.4-0.1 0.7-0.4 0.7h-4.4c-0.3 0-0.5-0.1-0.5-0.6v-7.3c0.1-0.1 0.3-0.1 0.6-0.1h4.7c0.1 0.1 0.1 0.2 0.1 0.5 0 0.4-0.1 0.6-0.4 0.6h-3.7v2.1h3.4c0.1 0.1 0.1 0.3 0.1 0.5 0 0.4-0.1 0.6-0.4 0.6h-3.2V422.8z"/><path fill="#0F5B65" d="M635.4 418.4c1.2 0 2.3 0.6 2.3 2.2 0 1.2-0.8 1.9-1.7 2.2 0.6 0.9 1.1 2.3 1.8 2.3h0.4c0.1 0.1 0.1 0.2 0.1 0.4 0 0.4-0.3 0.7-0.9 0.7 -1.3 0-1.6-2.1-2.6-3.3h-1.3v3.2c-0.1 0.1-0.4 0.1-0.6 0.1 -0.3 0-0.6-0.1-0.6-0.6v-7.3c0.1-0.1 0.3-0.1 0.6-0.1h2.5V418.4zM633.5 419.3v2.6h1.4c0.9 0 1.5-0.4 1.5-1.3s-0.6-1.3-1.3-1.3L633.5 419.3 633.5 419.3z"/><path fill="#0F5B65" d="M640.4 418.8l2.2 5.8c1-1.7 2-4.7 2.1-6.1 0.2-0.1 0.4-0.1 0.7-0.1 0.2 0 0.4 0.1 0.4 0.3 0 0.1 0 0.3-0.1 0.7 -0.2 1.1-1.3 4.2-2.8 6.8 -0.2 0.1-0.3 0.1-0.5 0.1 -0.3 0-0.5-0.1-0.6-0.5l-2.8-7.3c0.1-0.1 0.4-0.1 0.7-0.1C640.1 418.4 640.3 418.5 640.4 418.8z"/><path fill="#0F5B65" d="M648.5 418.8v7.3c-0.2 0.1-0.3 0.1-0.7 0.1 -0.3 0-0.6-0.1-0.6-0.6v-7.3c0.1-0.1 0.4-0.1 0.7-0.1C648.2 418.4 648.5 418.5 648.5 418.8z"/><path fill="#0F5B65" d="M656.3 424.9c0 0.3-0.1 0.5-0.4 0.7 -0.2 0.2-1 0.7-2.3 0.7 -1.9 0-3.4-1.2-3.4-4 0-2.8 1.4-4 3.3-4 1.3 0 1.8 0.3 2.3 0.7 0.2 0.2 0.4 0.4 0.4 0.6 0 0.3-0.2 0.5-0.4 0.6 -0.5-0.5-1.2-0.9-2.2-0.9 -1.2 0-2.2 0.8-2.2 2.9 0 2.1 1 2.9 2.2 2.9 0.9 0 1.7-0.3 2.2-0.8C656 424.4 656.3 424.5 656.3 424.9z"/><path fill="#0F5B65" d="M658.9 422.8v2.3h4c0.1 0.1 0.1 0.2 0.1 0.5 0 0.4-0.1 0.7-0.4 0.7h-4.4c-0.3 0-0.5-0.1-0.5-0.6v-7.3c0.1-0.1 0.3-0.1 0.6-0.1h4.7c0.1 0.1 0.1 0.2 0.1 0.5 0 0.4-0.1 0.6-0.4 0.6H659v2.1h3.4c0.1 0.1 0.1 0.3 0.1 0.5 0 0.4-0.1 0.6-0.4 0.6h-3.2V422.8z"/></svg>